<?xml version="1.0" encoding="utf-8"?>
<!-- Generator: Adobe Illustrator 16.0.0, SVG Export Plug-In . SVG Version: 6.00 Build 0)  -->
<!DOCTYPE svg PUBLIC "-//W3C//DTD SVG 1.1//EN" "http://www.w3.org/Graphics/SVG/1.1/DTD/svg11.dtd">
<svg version="1.1" id="Layer_1" xmlns="http://www.w3.org/2000/svg" xmlns:xlink="http://www.w3.org/1999/xlink" x="0px" y="0px"
	 width="51.761px" height="51.75px" viewBox="12.875 1 51.761 51.75" enable-background="new 12.875 1 51.761 51.75"
	 xml:space="preserve">
<g>
	<g>
		<defs>
			<rect id="SVGID_1_" x="-571.958" y="-293.475" width="1224" height="792"/>
		</defs>
		<clipPath id="SVGID_2_">
			<use xlink:href="#SVGID_1_"  overflow="visible"/>
		</clipPath>
	</g>
	<g>
		<defs>
			<rect id="SVGID_3_" x="-571.958" y="-293.475" width="1224" height="792"/>
		</defs>
		<clipPath id="SVGID_4_">
			<use xlink:href="#SVGID_3_"  overflow="visible"/>
		</clipPath>
	</g>
	<g>
		<defs>
			<rect id="SVGID_5_" x="-571.958" y="-293.475" width="1224" height="792"/>
		</defs>
		<clipPath id="SVGID_6_">
			<use xlink:href="#SVGID_5_"  overflow="visible"/>
		</clipPath>
	</g>
	<g>
		<defs>
			<rect id="SVGID_7_" x="-571.958" y="-293.475" width="1224" height="792"/>
		</defs>
		<clipPath id="SVGID_8_">
			<use xlink:href="#SVGID_7_"  overflow="visible"/>
		</clipPath>
	</g>
	<g>
		<defs>
			<rect id="SVGID_9_" x="-571.958" y="-293.475" width="1224" height="792"/>
		</defs>
		<clipPath id="SVGID_10_">
			<use xlink:href="#SVGID_9_"  overflow="visible"/>
		</clipPath>
		<path clip-path="url(#SVGID_10_)" fill="#435363" d="M38.965,38.403c-6.404,0-11.615-5.21-11.615-11.614
			c0-6.405,5.211-11.616,11.615-11.616c5.287,0,9.756,3.551,11.157,8.392h4.494C53.12,16.294,46.672,10.81,38.965,10.81
			c-8.811,0-15.979,7.168-15.979,15.979c0,8.81,7.168,15.979,15.979,15.979c7.707,0,14.155-5.483,15.651-12.754h-4.494
			C48.721,34.853,44.252,38.403,38.965,38.403"/>
	</g>
	<g>
		<defs>
			<rect id="SVGID_11_" x="-571.958" y="-293.475" width="1224" height="792"/>
		</defs>
		<clipPath id="SVGID_12_">
			<use xlink:href="#SVGID_11_"  overflow="visible"/>
		</clipPath>
		<path clip-path="url(#SVGID_12_)" fill="#435363" d="M31.135,34.618c2.006,2.006,4.776,3.249,7.83,3.249v-4.631
			c-1.78,0-3.392-0.723-4.56-1.889L31.135,34.618z"/>
	</g>
	<g>
		<defs>
			<rect id="SVGID_13_" x="-571.958" y="-293.475" width="1224" height="792"/>
		</defs>
		<clipPath id="SVGID_14_">
			<use xlink:href="#SVGID_13_"  overflow="visible"/>
		</clipPath>
		<path clip-path="url(#SVGID_14_)" fill="#F38B00" d="M27.887,26.788c0,1.585,0.338,3.093,0.94,4.458l4.235-1.863
			c-0.35-0.794-0.546-1.671-0.546-2.595c0-3.561,2.887-6.447,6.447-6.447V15.71C32.856,15.71,27.887,20.68,27.887,26.788"/>
	</g>
	<g>
		<defs>
			<rect id="SVGID_15_" x="-571.958" y="-293.475" width="1224" height="792"/>
		</defs>
		<clipPath id="SVGID_16_">
			<use xlink:href="#SVGID_15_"  overflow="visible"/>
		</clipPath>
		<path clip-path="url(#SVGID_16_)" fill="#435363" d="M42.981,16.465l-1.68,4.317c1.372,0.535,2.517,1.522,3.245,2.782h5.016
			C48.572,20.313,46.124,17.692,42.981,16.465"/>
	</g>
	<g>
		<defs>
			<rect id="SVGID_17_" x="-571.958" y="-293.475" width="1224" height="792"/>
		</defs>
		<clipPath id="SVGID_18_">
			<use xlink:href="#SVGID_17_"  overflow="visible"/>
		</clipPath>
		<path clip-path="url(#SVGID_18_)" fill="#F38B00" d="M41.303,32.794l1.679,4.317c3.144-1.227,5.592-3.849,6.582-7.1h-5.016
			C43.818,31.272,42.674,32.26,41.303,32.794"/>
	</g>
	<g>
		<defs>
			<rect id="SVGID_19_" x="-571.958" y="-293.475" width="1224" height="792"/>
		</defs>
		<clipPath id="SVGID_20_">
			<use xlink:href="#SVGID_19_"  overflow="visible"/>
		</clipPath>
		<path clip-path="url(#SVGID_20_)" fill="#435363" d="M18.47,32.985c-0.073-0.242-0.143-0.486-0.208-0.732
			c-0.004-0.015-0.008-0.03-0.012-0.045c-0.061-0.228-0.115-0.456-0.168-0.686c-0.012-0.047-0.021-0.094-0.031-0.141
			c-0.044-0.197-0.084-0.396-0.123-0.595c-0.017-0.089-0.032-0.178-0.047-0.267c-0.028-0.159-0.056-0.317-0.081-0.478
			c-0.021-0.137-0.039-0.273-0.057-0.41c-0.126-0.934-0.194-1.883-0.193-2.844h-4.375c-0.001,1.048,0.065,2.083,0.188,3.105l0,0
			c0.003,0.022,0.007,0.044,0.01,0.066c0.033,0.278,0.071,0.556,0.114,0.831c0.013,0.076,0.025,0.152,0.038,0.229
			c0.038,0.226,0.077,0.452,0.121,0.677c0.022,0.12,0.048,0.238,0.073,0.357c0.037,0.179,0.075,0.358,0.116,0.536
			c0.036,0.156,0.075,0.312,0.115,0.468c0.034,0.139,0.068,0.278,0.105,0.417c0.05,0.184,0.104,0.366,0.156,0.549
			c0.021,0.076,0.042,0.154,0.064,0.229h0.002c0.303,0.999,0.66,1.974,1.076,2.918l4.009-1.763
			C19.019,34.624,18.721,33.814,18.47,32.985z"/>
	</g>
	<g>
		<defs>
			<rect id="SVGID_21_" x="-571.958" y="-293.475" width="1224" height="792"/>
		</defs>
		<clipPath id="SVGID_22_">
			<use xlink:href="#SVGID_21_"  overflow="visible"/>
		</clipPath>
		<path clip-path="url(#SVGID_22_)" fill="#F38B00" d="M38.965,48.204c-5.904,0-11.256-2.404-15.133-6.282l-3.1,3.1
			c4.667,4.666,11.111,7.557,18.232,7.557c13.151,0,24.001-9.844,25.588-22.565h-4.415C58.578,40.296,49.678,48.204,38.965,48.204"
			/>
	</g>
	<g>
		<defs>
			<rect id="SVGID_23_" x="-571.958" y="-293.475" width="1224" height="792"/>
		</defs>
		<clipPath id="SVGID_24_">
			<use xlink:href="#SVGID_23_"  overflow="visible"/>
		</clipPath>
		<path clip-path="url(#SVGID_24_)" fill="#F38B00" d="M38.965,5.374c4.797,0,9.228,1.585,12.802,4.26l2.621-3.513
			C50.086,2.905,44.748,1,38.965,1C28.022,1,18.672,7.816,14.928,17.435l4.081,1.588C22.124,11.042,29.895,5.374,38.965,5.374"/>
	</g>
	<g>
		<defs>
			<rect id="SVGID_25_" x="-571.958" y="-293.475" width="1224" height="792"/>
		</defs>
		<clipPath id="SVGID_26_">
			<use xlink:href="#SVGID_25_"  overflow="visible"/>
		</clipPath>
		<path clip-path="url(#SVGID_26_)" fill="#435363" d="M60.138,23.565h4.415c-0.473-3.795-1.771-7.334-3.709-10.432l-3.718,2.32
			C58.644,17.876,59.691,20.623,60.138,23.565"/>
	</g>
	<g>
		<defs>
			<rect id="SVGID_27_" x="-571.958" y="-293.475" width="1224" height="792"/>
		</defs>
		<clipPath id="SVGID_28_">
			<use xlink:href="#SVGID_27_"  overflow="visible"/>
		</clipPath>
		<path clip-path="url(#SVGID_28_)" fill="#F38B00" d="M55.164,23.565h4.43c-1.156-7.428-6.243-13.57-13.06-16.231l-1.582,4.068
			C50.136,13.426,54.057,17.993,55.164,23.565"/>
	</g>
	<g>
		<defs>
			<rect id="SVGID_29_" x="-571.958" y="-293.475" width="1224" height="792"/>
		</defs>
		<clipPath id="SVGID_30_">
			<use xlink:href="#SVGID_29_"  overflow="visible"/>
		</clipPath>
		<path clip-path="url(#SVGID_30_)" fill="#435363" d="M38.965,10.273L38.965,10.273l0.001-4.362h-0.001
			c-8.843,0-16.418,5.526-19.456,13.307l4.065,1.582C25.978,14.645,31.97,10.273,38.965,10.273"/>
	</g>
	<g>
		<defs>
			<rect id="SVGID_31_" x="-571.958" y="-293.475" width="1224" height="792"/>
		</defs>
		<clipPath id="SVGID_32_">
			<use xlink:href="#SVGID_31_"  overflow="visible"/>
		</clipPath>
		<path clip-path="url(#SVGID_32_)" fill="#F38B00" d="M22.45,26.788L22.45,26.788h-4.362l0,0c0,8.773,5.44,16.296,13.125,19.38
			l1.62-4.049C26.754,39.679,22.45,33.728,22.45,26.788"/>
	</g>
	<g>
		<defs>
			<rect id="SVGID_33_" x="-571.958" y="-293.475" width="1224" height="792"/>
		</defs>
		<clipPath id="SVGID_34_">
			<use xlink:href="#SVGID_33_"  overflow="visible"/>
		</clipPath>
		<path clip-path="url(#SVGID_34_)" fill="#435363" d="M38.965,43.303v4.363c10.416,0,19.074-7.668,20.629-17.655h-4.431
			C53.66,37.581,46.969,43.303,38.965,43.303"/>
	</g>
</g>
</svg>
